Coordinates
version=1
nRows=13
nColumns=36
inDegrees=yes

Units are S.I. units (second, meters, Newtons, ...)
If the header above contains a line with 'inDegrees', this indicates whether rotational values are in degrees (yes) or radians (no).

endheader
time	pelvis_tilt	pelvis_list	pelvis_rotation	pelvis_tx	pelvis_ty	pelvis_tz	hip_flexion_r	hip_adduction_r	hip_rotation_r	knee_angle_r	knee_angle_r_beta	ankle_angle_r	subtalar_angle_r	mtp_angle_r	hip_flexion_l	hip_adduction_l	hip_rotation_l	knee_angle_l	knee_angle_l_beta	ankle_angle_l	subtalar_angle_l	mtp_angle_l	lumbar_extension	lumbar_bending	lumbar_rotation	arm_flex_r	arm_add_r	arm_rot_r	elbow_flex_r	pro_sup_r	arm_flex_l	arm_add_l	arm_rot_l	elbow_flex_l	pro_sup_l
     10.09000000	    -11.32581077	     -0.86831214	      2.46067255	     -0.22717782	      0.91641816	     -0.60950461	     29.71415520	     -8.33690574	     -5.40411132	     30.76828163	      0.53700782	     14.37805455	     -6.56343204	     -7.49999987	     32.28521070	     -8.33543285	     -4.23385420	     31.44487147	      0.54881654	     13.19760888	     -3.82978446	     -7.49999987	     -5.59961291	      0.86280706	      0.62140393	     29.11048444	    -13.37102926	     -4.17104849	     46.04332464	    113.11236662	     40.40622198	    -10.51742503	      0.42732990	     32.55545020	    107.77185531
     10.10000000	    -10.95914689	     -0.87126255	      2.51553288	     -0.22322973	      0.92051753	     -0.60966023	     28.18220129	     -8.15176322	     -5.34319546	     29.11363908	      0.50812886	     13.68484018	     -6.45110602	     -7.49999987	     30.78025686	     -8.13392674	     -3.99474720	     29.85915854	      0.52114063	     12.70265022	     -3.80651227	     -7.49999987	     -5.16278964	      0.88615789	      0.51290948	     27.43342973	    -13.15470685	     -4.73185044	     45.51877199	    113.11460326	     38.81395935	    -10.54562224	      0.05896417	     31.69365305	    107.76332620
     10.11000000	    -10.55914279	     -0.86381179	      2.53386363	     -0.21920520	      0.92437589	     -0.60967741	     26.64667794	     -7.98750745	     -5.48159168	     27.50857305	      0.48011517	     13.05361240	     -6.35597381	     -7.49999987	     29.25418278	     -8.00986123	     -4.01580191	     28.32263091	      0.49432316	     12.25083981	     -3.82424578	     -7.49999987	     -4.76923833	      0.85351063	      0.43075600	     25.77331227	    -12.95871228	     -5.25297523	     44.98353347	    113.09598094	     37.26596202	    -10.59104627	     -0.27862053	     30.85411369	    107.73817812
     10.12000000	     -9.80406584	     -0.81681572	      2.55635467	     -0.21517083	      0.92871738	     -0.60982117	     24.63089072	     -7.83028518	     -5.53156293	     25.72152301	      0.44892527	     12.06581951	     -6.22137527	     -7.49999987	     27.25469082	     -7.80915149	     -3.88304722	     26.62158185	      0.46463426	     11.49732125	     -3.97455391	     -7.49999987	     -4.88908116	      0.84172993	      0.41275197	     24.23817868	    -12.71162730	     -5.96522450	     44.44269463	    113.07120781	     35.94366891	    -10.55551531	     -0.77508066	     29.90987758	    107.74324622
     10.13000000	     -9.22389477	     -0.77377302	      2.54558884	     -0.21127917	      0.93248022	     -0.60993209	     22.90411043	     -7.68570058	     -5.60765856	     24.08899922	      0.42043235	     11.15858175	     -6.37918581	     -7.49999987	     25.50854332	     -7.62542571	     -3.80530653	     25.01877349	      0.43665997	     10.67597393	     -4.49360452	     -7.49999987	     -4.80695682	      0.80635641	      0.44254297	     22.64224636	    -12.50475689	     -6.65681631	     44.04337935	    113.10438817	     34.61804589	    -10.41264104	     -1.42277124	     28.97815737	    107.88543463
     10.14000000	     -9.20824248	     -0.76937369	      2.49210115	     -0.20765107	      0.93488683	     -0.60994491	     21.98227419	     -7.55946320	     -5.67307225	     22.79020091	      0.39776404	     10.88000566	     -6.20341813	     -7.49999987	     24.56205750	     -7.55037045	     -3.91918759	     23.74441502	      0.41441822	     10.42167054	     -4.38435239	     -7.49999987	     -4.04268808	      0.82040174	      0.42895408	     21.01969656	    -12.43853790	     -6.74346632	     43.59376638	    113.09674812	     33.00546911	    -10.43700283	     -1.60811169	     28.31374596	    107.86073276
     10.15000000	     -8.40641398	     -0.75416646	      2.42258136	     -0.20384088	      0.93856268	     -0.60978993	     19.93008428	     -7.28607781	     -5.35762903	     20.93117081	      0.36531785	      9.67606992	     -6.62124818	     -7.49999987	     22.54111918	     -7.45727932	     -3.82597573	     22.06596105	      0.38512367	      9.34765706	     -4.78259113	     -7.49999987	     -4.30423515	      0.81886898	      0.49763873	     19.68550300	    -12.29618436	     -7.14500465	     43.04030999	    113.45428339	     31.81011627	    -10.28888594	     -2.16342216	     27.36474549	    107.67009894
     10.16000000	     -7.93795502	     -0.74281759	      2.35180788	     -0.20018594	      0.94137744	     -0.60954574	     18.40975724	     -7.09867853	     -5.30474327	     19.40231834	      0.33863434	      9.01621518	     -6.39045473	     -7.49999987	     21.00416876	     -7.41907568	     -3.97825400	     20.60413007	      0.35960991	      8.84417616	     -4.72789385	     -7.49999987	     -4.16858503	      0.80821752	      0.52718757	     18.31266206	    -12.16859205	     -7.29943240	     42.54720446	    113.22176039	     30.49793765	    -10.22738428	     -2.57410057	     26.58286874	    107.25759123
     10.17000000	     -7.49955114	     -0.74064415	      2.30374098	     -0.19669404	      0.94390472	     -0.60938495	     16.99751073	     -6.92919434	     -5.27779426	     18.00904651	      0.31431716	      8.18376496	     -6.45738661	     -7.49999987	     19.56032057	     -7.37096112	     -4.10780746	     19.21790798	      0.33541577	      8.20388681	     -4.85071373	     -7.49999987	     -4.03191978	      0.83301584	      0.51168175	     17.00168686	    -12.00508360	     -7.62341374	     42.08267013	    113.40864608	     29.15909377	    -10.24144630	     -2.76664911	     25.89954093	    106.85704022
     10.18000000	     -7.09168230	     -0.72228422	      2.29743455	     -0.19325076	      0.94623334	     -0.60931514	     15.60627642	     -6.81152807	     -5.31453249	     16.59305360	      0.28960342	      7.58180193	     -6.16029857	     -7.49999987	     18.11896174	     -7.27882533	     -4.13403754	     17.75177362	      0.30982690	      7.62000993	     -4.77378455	     -7.49999987	     -3.86820551	      0.80834494	      0.51722790	     15.68689621	    -11.80878196	     -8.01919503	     41.59873830	    113.34722038	     27.98153520	    -10.21242093	     -2.83067418	     25.04162162	    106.61944014
     10.19000000	     -6.62978007	     -0.69129595	      2.25517930	     -0.18982127	      0.94843168	     -0.60928371	     14.17659425	     -6.70751519	     -5.37721060	     15.20940013	      0.26545411	      7.18071207	     -5.75647112	     -7.49999987	     16.64546092	     -7.19002123	     -4.23134763	     16.37626026	      0.28581966	      7.24756861	     -4.45904403	     -7.49999987	     -3.80170799	      0.78880620	      0.51299660	     14.52802485	    -11.57268490	     -8.48351040	     40.97487300	    113.35453571	     26.71380920	    -10.14218886	     -3.30165569	     24.42588926	    106.27769626
     10.20000000	     -6.22061874	     -0.64781922	      2.16934437	     -0.18655465	      0.95039286	     -0.60915102	     12.86780766	     -6.60684958	     -5.35963804	     13.88886847	      0.24240648	      6.54502212	     -5.81987408	     -7.49999987	     15.25033653	     -7.08304517	     -4.32827715	     15.01373056	      0.26203903	      6.72240637	     -4.49882652	     -7.49999987	     -3.74824946	      0.76074912	      0.57165862	     13.35699025	    -11.18464596	     -9.66082685	     40.54485493	    113.66667800	     25.38255462	    -10.04335755	     -4.04953355	     24.08922354	    106.76980975
     10.21000000	     -5.79401015	     -0.61118772	      2.09609846	     -0.18337421	      0.95217940	     -0.60899389	     11.59271643	     -6.51094433	     -5.41464429	     12.68756008	      0.22143970	      6.15316169	     -5.62007470	     -7.49999987	     13.87016813	     -6.99417954	     -4.48381633	     13.71291548	      0.23933553	      6.29570782	     -4.34662422	     -7.49999987	     -3.67686746	      0.72953253	      0.52499885	     12.29251602	    -10.98905071	     -9.78231706	     39.88676948	    113.61407362	     24.14373870	    -10.00069799	     -4.32174346	     23.46232488	    106.32166457
